#format: frame checksums
#version: 2
#hash: MD5
#tb 0: 1001/30000
#media_type 0: video
#codec_id 0: rawvideo
#dimensions 0: 66x66
#sar 0: 1/1
#stream#, dts,        pts, duration,     size, hash
0,          0,          0,        1,     6534, 69f9028d52f95d2e7f986c57b19fc018
0,          1,          1,        1,     6534, 068e611f62b3f6222f6b1699748c8fbf
0,          2,          2,        1,     6534, 3d3fec78ff2274241a7958f17a773a19
0,          3,          3,        1,     6534, 93d71ef1a2d00c7e70e76ccc1859143d
0,          4,          4,        1,     6534, 5a35a640d52bc0930825b963b0b9e830
0,          5,          5,        1,     6534, 782223239e6b1ca1bedbd25d9652a07c
0,          6,          6,        1,     6534, a4b5e8a319cbc9a12d3e36127c7f0fbb
0,          7,          7,        1,     6534, a3e2d9a78fa42b3c817aadfd31fd2d16
0,          8,          8,        1,     6534, e9fc6b83535735f46006f3e4b376755f
0,          9,          9,        1,     6534, 80223f600dfe86021bd0e83fecdc4b2b
